<svg width="15" height="15" viewBox="0 0 15 15" fill="none" xmlns="http://www.w3.org/2000/svg">
<g clip-path="url(#clip0_5_80)">
<path d="M11.9062 3.06875C10.7375 1.89375 9.18125 1.25 7.525 1.25C4.1125 1.25 1.33125 4.03125 1.33125 7.44375C1.33125 8.5375 1.61875 9.6 2.15625 10.5375L1.28125 13.75L4.5625 12.8875C5.46875 13.3813 6.4875 13.6438 7.525 13.6438C10.9375 13.6438 13.7188 10.8625 13.7188 7.45C13.7188 5.79375 13.075 4.2375 11.9062 3.06875ZM7.525 12.5938C6.6 12.5938 5.69375 12.3438 4.9 11.875L4.7125 11.7625L2.7625 12.275L3.28125 10.375L3.15625 10.1813C2.64375 9.3625 2.36875 8.4125 2.36875 7.44375C2.36875 4.60625 4.68125 2.29375 7.51875 2.29375C8.89375 2.29375 10.1875 2.83125 11.1562 3.80625C12.1313 4.78125 12.6625 6.075 12.6625 7.45C12.675 10.2875 10.3625 12.5938 7.525 12.5938ZM10.35 8.74375C10.1937 8.66875 9.43125 8.29375 9.29375 8.2375C9.15 8.1875 9.05 8.1625 8.94375 8.3125C8.8375 8.46875 8.54375 8.81875 8.45625 8.91875C8.36875 9.025 8.275 9.0375 8.11875 8.95625C7.9625 8.88125 7.4625 8.7125 6.875 8.1875C6.4125 7.775 6.10625 7.26875 6.0125 7.1125C5.925 6.95625 6 6.875 6.08125 6.79375C6.15 6.725 6.2375 6.6125 6.3125 6.525C6.3875 6.4375 6.41875 6.36875 6.46875 6.26875C6.51875 6.1625 6.49375 6.075 6.45625 6C6.41875 5.925 6.10625 5.1625 5.98125 4.85C5.85625 4.55 5.725 4.5875 5.63125 4.58125C5.5375 4.58125 5.4375 4.58125 5.33125 4.58125C5.225 4.58125 5.0625 4.61875 4.91875 4.775C4.78125 4.93125 4.38125 5.30625 4.38125 6.06875C4.38125 6.83125 4.9375 7.56875 5.0125 7.66875C5.0875 7.775 6.10625 9.3375 7.65625 10.0063C8.025 10.1687 8.3125 10.2625 8.5375 10.3313C8.90625 10.45 9.24375 10.4312 9.5125 10.3937C9.8125 10.35 10.4312 10.0188 10.5562 9.65625C10.6875 9.29375 10.6875 8.9875 10.6438 8.91875C10.6 8.85 10.5062 8.81875 10.35 8.74375Z" fill="white"/>
</g>
<defs>
<clipPath id="clip0_5_80">
<rect width="15" height="15" fill="white"/>
</clipPath>
</defs>
</svg>
